<?xml version="1.0" encoding="UTF-8" standalone="no"?>
<!-- Created with Inkscape (http://www.inkscape.org/) -->

<svg
   xmlns:dc="http://purl.org/dc/elements/1.1/"
   xmlns:cc="http://creativecommons.org/ns#"
   xmlns:rdf="http://www.w3.org/1999/02/22-rdf-syntax-ns#"
   xmlns:svg="http://www.w3.org/2000/svg"
   xmlns="http://www.w3.org/2000/svg"
   version="1.1"
   width="694.1875"
   height="137.5625"
   id="svg9638">
  <defs
     id="defs9640" />
  <metadata
     id="metadata9643">
    <rdf:RDF>
      <cc:Work
         rdf:about="">
        <dc:format>image/svg+xml</dc:format>
        <dc:type
           rdf:resource="http://purl.org/dc/dcmitype/StillImage" />
        <dc:title></dc:title>
      </cc:Work>
    </rdf:RDF>
  </metadata>
  <g
     transform="translate(-2.90625,-463.58093)"
     id="layer1">
    <path
       d="m 353.75,463.58093 -31.78125,137.5625 96.15625,0 5.125,-27.9375 -62.25,0 25.78125,-109.625 z m 131.15625,0 -31.5625,137.5625 96.15625,0 5.125,-27.9375 -62.25,0 25.78125,-109.625 z m 152.46875,0 -74,137.34375 33.0625,0 14.28125,-26.21875 c 16.78125,0 33.5625,0 50.34375,0 l 4.25,26.4375 31.78125,0 -26.65625,-137.5625 c -11.02083,0 -22.04167,0 -33.0625,0 z m -603.09375,0.21875 -31.375,137.34375 32.21875,0 12.78125,-54.8125 48,0 -12.59375,54.8125 33.71875,0 31.34375,-137.34375 -32.84375,0 -12.8125,53.3125 -47.96875,0 12.78125,-53.3125 z m 614.59375,39.25 8.125,48.40625 c -11.58333,0 -23.16667,0 -34.75,0 8.67187,-16.24914 17.57874,-32.36422 26.625,-48.40625 z"
       id="path636"
       style="fill:#58585a;fill-opacity:1;fill-rule:evenodd;stroke:none" />
    <path
       d="m 202.96411,464.22787 -30.92931,30.70756 117.7299,0 30.91875,-30.70756 -117.71934,0"
       id="path640"
       style="fill:#fcb215;fill-opacity:1;fill-rule:evenodd;stroke:none" />
    <path
       d="m 190.16566,517.7549 -30.91875,30.70756 117.93054,0 30.91875,-30.70756 -117.93054,0"
       id="path644"
       style="fill:#e62649;fill-opacity:1;fill-rule:evenodd;stroke:none" />
    <path
       d="m 177.80017,570.4267 -30.91874,30.70757 117.71933,0 30.91875,-30.70757 -117.71933,0"
       id="path648"
       style="fill:#106db6;fill-opacity:1;fill-rule:evenodd;stroke:none" />
  </g>
</svg>
